grf
version=1
nRows=27
nColumns=19
inDegrees=yes
endheader
time	ground_force_1_vx	ground_force_1_vy	ground_force_1_vz	ground_force_1_px	ground_force_1_py	ground_force_1_pz	ground_moment_1_mx	ground_moment_1_my	ground_moment_1_mz	ground_force_2_vx	ground_force_2_vy	ground_force_2_vz	ground_force_2_px	ground_force_2_py	ground_force_2_pz	ground_moment_2_mx	ground_moment_2_my	ground_moment_2_mz
1.732000	7.338681	412.207306	-61.272225	0.177961	0.000000	-1.021719	0.000000	3.141185	0.000000	-5.028604	452.114309	63.213469	0.211958	0.000000	-1.438060	0.000000	-3.645143	-0.000000
1.733000	7.327983	412.206210	-61.270298	0.177609	0.000000	-1.020307	0.000000	3.139656	0.000000	-5.020033	452.057116	63.208238	0.211786	0.000000	-1.441361	0.000000	-3.643154	-0.000000
1.734000	7.316646	412.202409	-61.268089	0.177082	0.000000	-1.021390	0.000000	3.138179	0.000000	-5.011090	452.002050	63.203961	0.212143	0.000000	-1.437865	0.000000	-3.641018	-0.000000
1.735000	7.304735	412.196349	-61.265665	0.176769	0.000000	-1.023857	0.000000	3.136818	0.000000	-5.001700	451.950842	63.200855	0.209171	0.000000	-1.438567	0.000000	-3.638750	-0.000000
1.736000	7.292358	412.188681	-61.263162	0.176191	0.000000	-1.023153	0.000000	3.135642	0.000000	-4.991772	451.904774	63.199091	0.212486	0.000000	-1.441056	0.000000	-3.636363	-0.000000
1.737000	7.279602	412.180031	-61.260702	0.175674	0.000000	-1.023189	0.000000	3.134700	0.000000	-4.981236	451.864995	63.198751	0.211699	0.000000	-1.438243	0.000000	-3.633884	-0.000000
1.738000	7.266534	412.171030	-61.258437	0.177358	0.000000	-1.022256	0.000000	3.134020	0.000000	-4.970052	451.832512	63.199847	0.210824	0.000000	-1.437616	0.000000	-3.631353	-0.000000
1.739000	7.253238	412.162366	-61.256576	0.177067	0.000000	-1.023783	0.000000	3.133604	0.000000	-4.958186	451.807860	63.202361	0.211691	0.000000	-1.443957	0.000000	-3.628827	-0.000000
1.740000	7.239825	412.154596	-61.255315	0.178491	0.000000	-1.023210	0.000000	3.133435	0.000000	-4.945597	451.791429	63.206249	0.214978	0.000000	-1.440496	-0.000000	-3.626362	-0.000000
1.741000	7.226440	412.147903	-61.254758	0.176635	0.000000	-1.022133	0.000000	3.133473	0.000000	-4.932243	451.784413	63.211442	0.212459	0.000000	-1.441099	-0.000000	-3.624008	-0.000000
1.742000	7.213296	412.142200	-61.254897	0.176199	0.000000	-1.021143	0.000000	3.133667	0.000000	-4.918107	451.788945	63.217820	0.212000	0.000000	-1.440381	-0.000000	-3.621783	-0.000000
1.743000	7.200682	412.137594	-61.255652	0.176204	0.000000	-1.023602	0.000000	3.133957	0.000000	-4.903231	451.807050	63.225205	0.207319	0.000000	-1.432456	-0.000000	-3.619673	-0.000000
1.744000	7.188937	412.134729	-61.256905	0.177480	0.000000	-1.019278	0.000000	3.134280	0.000000	-4.887718	451.839196	63.233354	0.211109	0.000000	-1.434170	-0.000000	-3.617652	-0.000000
1.745000	7.178437	412.134726	-61.258487	0.176974	0.000000	-1.029319	0.000000	3.134564	0.000000	-4.871696	451.883482	63.241946	0.212224	0.000000	-1.441770	-0.000000	-3.615712	-0.000000
1.746000	7.169565	412.138763	-61.260199	0.176842	0.000000	-1.020697	0.000000	3.134733	0.000000	-4.855257	451.936232	63.250590	0.211994	0.000000	-1.439106	-0.000000	-3.613856	-0.000000
1.747000	7.162596	412.147628	-61.261870	0.175272	0.000000	-1.030500	0.000000	3.134724	0.000000	-4.838449	451.993354	63.258894	0.209812	0.000000	-1.439836	-0.000000	-3.612091	-0.000000
1.748000	7.157610	412.161567	-61.263366	0.177703	0.000000	-1.022431	0.000000	3.134503	0.000000	-4.821300	452.051179	63.266600	0.212149	0.000000	-1.439709	-0.000000	-3.610433	-0.000000
1.749000	7.154582	412.180352	-61.264558	0.176186	0.000000	-1.024336	0.000000	3.134070	0.000000	-4.803861	452.106637	63.273671	0.212702	0.000000	-1.440905	-0.000000	-3.608906	-0.000000
1.750000	7.153459	412.203283	-61.265312	0.175273	0.000000	-1.022322	0.000000	3.133458	0.000000	-4.786215	452.157053	63.280231	0.211935	0.000000	-1.444625	-0.000000	-3.607525	-0.000000
1.751000	7.154134	412.229219	-61.265498	0.175237	0.000000	-1.022677	0.000000	3.132713	0.000000	-4.768448	452.199895	63.286431	0.211756	0.000000	-1.439471	-0.000000	-3.606287	-0.000000
1.752000	7.156429	412.256753	-61.265030	0.175287	0.000000	-1.021356	0.000000	3.131875	0.000000	-4.750650	452.232898	63.292357	0.212700	0.000000	-1.440922	-0.000000	-3.605181	-0.000000
1.753000	7.160143	412.284252	-61.263882	0.176388	0.000000	-1.021481	0.000000	3.130976	0.000000	-4.732942	452.254535	63.298028	0.210207	0.000000	-1.441568	-0.000000	-3.604185	-0.000000
1.754000	7.165087	412.309917	-61.262040	0.182900	0.000000	-1.017699	0.000000	3.130035	0.000000	-4.715483	452.264314	63.303429	0.212849	0.000000	-1.442258	-0.000000	-3.603262	-0.000000
1.755000	7.171085	412.332428	-61.259463	0.175914	0.000000	-1.024097	0.000000	3.129034	0.000000	-4.698414	452.262612	63.308572	0.212082	0.000000	-1.440646	-0.000000	-3.602368	-0.000000
1.756000	7.177970	412.351431	-61.256086	0.176303	0.000000	-1.022181	0.000000	3.127910	0.000000	-4.681837	452.250412	63.313530	0.211258	0.000000	-1.441305	-0.000000	-3.601467	-0.000000
1.757000	7.185566	412.367124	-61.251813	0.175191	0.000000	-1.028770	0.000000	3.126582	0.000000	-4.665810	452.229229	63.318443	0.212277	0.000000	-1.443132	-0.000000	-3.600538	-0.000000
1.758000	7.193653	412.379476	-61.246530	0.177102	0.000000	-1.023884	0.000000	3.125006	0.000000	-4.650336	452.201220	63.323514	0.211560	0.000000	-1.439417	-0.000000	-3.599589	-0.000000
